<?xml version="1.0" encoding="UTF-8" standalone="no"?><svg xmlns="http://www.w3.org/2000/svg" xmlns:xlink="http://www.w3.org/1999/xlink" clip-rule="evenodd" fill="#000000" fill-rule="evenodd" height="2001.5" preserveAspectRatio="xMidYMid meet" stroke-linejoin="round" stroke-miterlimit="2" version="1" viewBox="52.9 249.2 2394.2 2001.5" width="2394.2" zoomAndPan="magnify"><g><g id="change1_5"><path d="M382.252,299.875L105.4,299.875C92.084,299.875 79.312,305.098 69.896,314.395C60.479,323.692 55.189,336.302 55.189,349.45C55.189,395.469 55.189,456.912 55.189,456.912L382.252,456.912L382.252,299.875Z" fill="#dcefee" transform="matrix(.99579 0 0 1.00858 10.09 -40.995)"/></g><g id="change1_7"><path d="M55.189 299.875H382.252V456.91200000000003H55.189z" fill="#dcefee" transform="matrix(.99579 0 0 1.00858 350.807 -40.995)"/></g><g id="change1_6"><path d="M55.189 299.875H382.252V456.91200000000003H55.189z" fill="#dcefee" transform="matrix(.99579 0 0 1.00858 691.444 -40.995)"/></g><g id="change1_2"><path d="M55.189 299.875H382.252V456.91200000000003H55.189z" fill="#dcefee" transform="matrix(.99579 0 0 1.00858 1032.182 -40.995)"/></g><g id="change1_1"><path d="M55.189 299.875H382.252V456.91200000000003H55.189z" fill="#dcefee" transform="matrix(.99579 0 0 1.00858 1372.882 -40.995)"/></g><g id="change1_4"><path d="M55.189 299.875H382.252V456.91200000000003H55.189z" fill="#dcefee" transform="matrix(.99579 0 0 1.00858 1713.612 -40.995)"/></g><g id="change1_3"><path d="M382.252,349.45C382.252,336.302 376.962,323.692 367.546,314.395C358.129,305.098 345.358,299.875 332.041,299.875L55.189,299.875L55.189,456.912L382.252,456.912L382.252,349.45Z" fill="#dcefee" transform="matrix(.99579 0 0 1.00858 2054.312 -40.995)"/></g></g><g><g id="change2_1"><path d="M401.622,2259.48L400.047,1914.25C400.047,1914.25 399.655,1553.21 399.653,1550.99C399.653,1550.99 399.876,1191.16 399.876,1191.16C399.876,1191.15 399.876,1191.14 399.876,1191.13L399.327,826.806C399.327,826.788 399.327,826.77 399.327,826.753L397.186,461.632C397.186,461.632 397.71,292.465 397.71,292.465C397.731,285.757 392.303,280.295 385.595,280.274C378.888,280.254 373.426,285.682 373.405,292.389L372.88,461.611C372.88,461.647 372.88,461.684 372.88,461.72C372.88,461.72 375.001,823.309 375.021,826.869C375.027,830.413 375.567,1188.67 375.571,1191.16C375.569,1193.63 375.347,1550.98 375.347,1550.98C375.347,1550.99 375.347,1551 375.347,1551L375.742,1914.3C375.742,1914.31 375.742,1914.32 375.742,1914.34L377.316,2259.59C377.347,2266.29 382.817,2271.71 389.524,2271.68C396.232,2271.65 401.652,2266.18 401.622,2259.48Z" transform="translate(11.83 -30.975)"/><path d="M717.026,292.368L716.256,450.752C716.256,450.773 716.256,450.794 716.256,450.815C716.256,450.815 716.36,823.975 716.36,825.143C716.36,825.143 716.296,1188.27 716.296,1188.27C716.296,1188.28 716.296,1188.29 716.296,1188.29L717.06,1552.12C717.037,1556.7 715.175,1915.51 715.175,1915.51C715.175,1915.55 715.175,1915.58 715.175,1915.62L716.458,2259.58C716.483,2266.28 721.949,2271.71 728.656,2271.68C735.364,2271.66 740.789,2266.19 740.764,2259.49C740.764,2259.49 739.499,1920.51 739.481,1915.58C739.507,1910.52 741.366,1552.2 741.366,1552.2C741.366,1552.17 741.366,1552.14 741.366,1552.11L740.602,1188.26L740.665,825.139L740.561,450.839C740.561,450.839 741.332,292.486 741.332,292.486C741.364,285.779 735.945,280.307 729.238,280.274C722.531,280.242 717.059,285.661 717.026,292.368Z" transform="translate(11.83 -30.975)"/><path d="M1079.47,2259.58L1080.84,1915.16C1080.84,1915.15 1080.84,1915.15 1080.84,1915.14L1081.85,1555.5C1081.85,1555.48 1081.85,1555.47 1081.85,1555.45C1081.85,1555.45 1081.29,1190.69 1081.29,1188.02L1081.61,831.637L1081.82,461.293C1081.82,461.256 1081.82,461.219 1081.82,461.182L1080.37,292.323C1080.32,285.616 1074.82,280.217 1068.12,280.275C1061.41,280.332 1056.01,285.824 1056.07,292.531L1057.52,461.335C1057.52,461.335 1057.31,831.621 1057.31,831.621C1057.31,831.621 1056.98,1188.02 1056.98,1188.02C1056.98,1188.03 1056.98,1188.04 1056.98,1188.05C1056.98,1188.05 1057.54,1551.91 1057.54,1555.46C1057.54,1555.46 1056.54,1915.07 1056.54,1915.07C1056.53,1916.87 1055.17,2259.48 1055.17,2259.48C1055.14,2266.19 1060.56,2271.66 1067.27,2271.68C1073.98,2271.71 1079.44,2266.29 1079.47,2259.58Z" transform="translate(11.83 -30.975)"/><path d="M1395.96,292.505L1399.38,826.859C1399.34,832.949 1396.98,1187.94 1396.98,1187.94C1396.98,1187.98 1396.98,1188.02 1396.98,1188.06C1396.98,1188.06 1398.22,1540.49 1398.23,1545.19C1398.2,1551.86 1395.16,2259.48 1395.16,2259.48C1395.13,2266.19 1400.55,2271.66 1407.26,2271.68C1413.97,2271.71 1419.43,2266.29 1419.46,2259.58L1422.54,1545.25C1422.54,1545.21 1422.54,1545.18 1422.54,1545.15L1421.28,1188.04C1421.28,1188.04 1423.68,826.941 1423.68,826.941C1423.68,826.888 1423.68,826.835 1423.68,826.783L1420.27,292.349C1420.22,285.642 1414.74,280.232 1408.04,280.275C1401.33,280.317 1395.92,285.798 1395.96,292.505Z" transform="translate(11.83 -30.975)"/><path d="M1741.85,292.431L1742.43,2259.53C1742.43,2266.24 1747.88,2271.69 1754.59,2271.68C1761.3,2271.68 1766.74,2266.24 1766.74,2259.53L1766.16,292.423C1766.16,285.716 1760.71,280.272 1754,280.274C1747.3,280.276 1741.85,285.723 1741.85,292.431Z" transform="translate(11.83 -30.975)"/><path d="M2076.38,292.418L2074.86,2259.52C2074.85,2266.23 2080.3,2271.68 2087,2271.68C2093.71,2271.69 2099.16,2266.25 2099.16,2259.54L2100.68,292.436C2100.69,285.729 2095.25,280.279 2088.54,280.274C2081.83,280.269 2076.38,285.71 2076.38,292.418Z" transform="translate(11.83 -30.975)"/><path d="M54.61,472.924L2422.83,473.583C2429.54,473.585 2434.99,468.141 2434.99,461.433C2434.99,454.726 2429.54,449.279 2422.84,449.277L54.617,448.618C47.91,448.616 42.463,454.06 42.461,460.767C42.459,467.475 47.903,472.922 54.61,472.924Z" transform="translate(11.83 -30.975)"/><path d="M2422.83,814.173L54.608,815.174C47.901,815.177 42.458,820.625 42.461,827.332C42.464,834.04 47.911,839.483 54.619,839.48L2422.84,838.478C2429.55,838.476 2434.99,833.028 2434.99,826.32C2434.98,819.613 2429.54,814.17 2422.83,814.173Z" transform="translate(11.83 -30.975)"/><path d="M54.622,1200.63L2422.84,1199C2429.55,1199 2434.99,1193.55 2434.99,1186.84C2434.98,1180.13 2429.53,1174.69 2422.83,1174.7L54.605,1176.32C47.898,1176.33 42.456,1181.78 42.461,1188.49C42.465,1195.19 47.915,1200.63 54.622,1200.63Z" transform="translate(11.83 -30.975)"/><path d="M2422.85,1539.2L54.626,1536.7C47.919,1536.69 42.468,1542.13 42.461,1548.84C42.454,1555.54 47.893,1561 54.601,1561L2422.82,1563.51C2429.53,1563.51 2434.98,1558.07 2434.99,1551.37C2434.99,1544.66 2429.55,1539.21 2422.85,1539.2Z" transform="translate(11.83 -30.975)"/><path d="M54.613,1925.73L2422.83,1925.91C2429.54,1925.91 2434.99,1920.46 2434.99,1913.76C2434.99,1907.05 2429.54,1901.6 2422.84,1901.6L54.614,1901.43C47.907,1901.43 42.461,1906.87 42.461,1913.58C42.46,1920.29 47.905,1925.73 54.613,1925.73Z" transform="translate(11.83 -30.975)"/></g><g id="change2_2"><path d="M2435.28,342.427C2435.28,308.101 2407.45,280.274 2373.12,280.274L103.218,280.274C68.892,280.274 41.065,308.101 41.065,342.427L41.065,2219.52C41.065,2253.85 68.892,2281.68 103.218,2281.68L2373.12,2281.68C2407.45,2281.68 2435.28,2253.85 2435.28,2219.52L2435.28,342.427ZM2410.97,342.427L2410.97,2219.52C2410.97,2240.43 2394.03,2257.37 2373.12,2257.37L103.218,2257.37C82.315,2257.37 65.371,2240.43 65.37,2219.52C65.37,2219.52 65.37,342.427 65.37,342.427C65.371,321.525 82.315,304.58 103.218,304.58L2373.12,304.58C2394.03,304.58 2410.97,321.525 2410.97,342.427Z" transform="translate(11.83 -30.975)"/></g></g></svg>